{"title":"Poltergeist 2015 Movies TELESYNC XviD AAC New +Sample ~ â˜»rDXâ˜»","uid":11998170,"size":740045730,"categoryP":"video","categoryS":"movies","magnet":"?xt=urn:btih:1f1d62bc800dbd7ae11501e1597fdf49e5f750e6&amp;dn=Poltergeist+2015+Movies+TELESYNC+XviD+AAC+New+%2BSample+%7E+%E2%98%BBrDX%E2%98%BB&amp;tr=udp%3A%2F%2Ftracker.openbittorrent.com%3A80&amp;tr=udp%3A%2F%2Fopen.demonii.com%3A1337&amp;tr=udp%3A%2F%2Ftracker.coppersurfer.tk%3A6969&amp;tr=udp%3A%2F%2Fexodus.desync.com%3A6969","seeders":6,"leechers":0,"uploader":"basicssom","files":2,"time":1433706557,"description":"----------------------------------------------------------------\nPoltergeist 2015 English Movies TELESYNC XviD AAC New Source with Sample ~ â˜»rDXâ˜»\n\nSCREEN SHOTS &amp; POSTER:\n &lt;a href=&quot;\nhttp://imagehosting4u.com/2015/6/Poltergeist/11.html&quot; rel=&quot;nofollow&quot; target=&quot;_NEW&quot;&gt;\nhttp://imagehosting4u.com/2015/6/Poltergeist/11.html&lt;/a&gt; &lt;a href=&quot;\nhttp://imagehosting4u.com/2015/6/Poltergeist/1.html&quot; rel=&quot;nofollow&quot; target=&quot;_NEW&quot;&gt;\nhttp://imagehosting4u.com/2015/6/Poltergeist/1.html&lt;/a&gt; &lt;a href=&quot;\nhttp://imagehosting4u.com/2015/6/Poltergeist/2.html&quot; rel=&quot;nofollow&quot; target=&quot;_NEW&quot;&gt;\nhttp://imagehosting4u.com/2015/6/Poltergeist/2.html&lt;/a&gt; &lt;a href=&quot;\nhttp://imagehosting4u.com/2015/6/Poltergeist/3.html&quot; rel=&quot;nofollow&quot; target=&quot;_NEW&quot;&gt;\nhttp://imagehosting4u.com/2015/6/Poltergeist/3.html&lt;/a&gt; &lt;a href=&quot;\nhttp://imagehosting4u.com/2015/6/Poltergeist/4.html&quot; rel=&quot;nofollow&quot; target=&quot;_NEW&quot;&gt;\nhttp://imagehosting4u.com/2015/6/Poltergeist/4.html&lt;/a&gt; &lt;a href=&quot;\nhttp://imagehosting4u.com/2015/6/Poltergeist/5.html&quot; rel=&quot;nofollow&quot; target=&quot;_NEW&quot;&gt;\nhttp://imagehosting4u.com/2015/6/Poltergeist/5.html&lt;/a&gt; &lt;a href=&quot;\nhttp://imagehosting4u.com/2015/6/Poltergeist/6.html&quot; rel=&quot;nofollow&quot; target=&quot;_NEW&quot;&gt;\nhttp://imagehosting4u.com/2015/6/Poltergeist/6.html&lt;/a&gt; &lt;a href=&quot;\nhttp://imagehosting4u.com/2015/6/Poltergeist/7.html&quot; rel=&quot;nofollow&quot; target=&quot;_NEW&quot;&gt;\nhttp://imagehosting4u.com/2015/6/Poltergeist/7.html&lt;/a&gt; &lt;a href=&quot;\nhttp://imagehosting4u.com/2015/6/Poltergeist/8.html&quot; rel=&quot;nofollow&quot; target=&quot;_NEW&quot;&gt;\nhttp://imagehosting4u.com/2015/6/Poltergeist/8.html&lt;/a&gt; &lt;a href=&quot;\nhttp://imagehosting4u.com/2015/6/Poltergeist/9.html&quot; rel=&quot;nofollow&quot; target=&quot;_NEW&quot;&gt;\nhttp://imagehosting4u.com/2015/6/Poltergeist/9.html&lt;/a&gt; &lt;a href=&quot;\nhttp://imagehosting4u.com/2015/6/Poltergeist/10.html&quot; rel=&quot;nofollow&quot; target=&quot;_NEW&quot;&gt;\nhttp://imagehosting4u.com/2015/6/Poltergeist/10.html&lt;/a&gt;\n\nFormat                                   : Matroska\nFormat version                           : Version 4 / Version 2\nFile size                                : 697 MiB\nDuration                                 : 1h 26mn\nOverall bit rate                         : 1 124 Kbps\nMovie name                               : Poltergeist 2015 English Movies TELESYNC XviD AAC New Source ~ rDX ~\n\nVideo\nID                                       : 1\nFormat                                   : MPEG-4 Visual\nFormat profile                           : Advanced Simple@L5\nFormat settings, BVOP                    : Yes\nFormat settings, QPel                    : No\nFormat settings, GMC                     : No warppoints\nFormat settings, Matrix                  : Default (H.263)\nCodec ID                                 : V_MS/VFW/FOURCC / XVID\nCodec ID/Hint                            : XviD\nDuration                                 : 1h 26mn\nBit rate                                 : 973 Kbps\nWidth                                    : 688 pixels\nHeight                                   : 304 pixels\nDisplay aspect ratio                     : 2.25:1\nFrame rate mode                          : Constant\nFrame rate                               : 23.976 fps\nColor space                              : YUV\nChroma subsampling                       : 4:2:0\nBit depth                                : 8 bits\nScan type                                : Progressive\nCompression mode                         : Lossy\nBits/(Pixel*Frame)                       : 0.194\nStream size                              : 604 MiB (87%)\nTitle                                    : ~ rDX ~\nWriting library                          : XviD 64\nDefault                                  : Yes\nForced                                   : No\n\nAudio\nID                                       : 2\nFormat                                   : MPEG Audio\nFormat version                           : Version 1\nFormat profile                           : Layer 3\nMode                                     : Joint stereo\nMode extension                           : MS Stereo\nCodec ID                                 : A_MPEG/L3\nCodec ID/Hint                            : MP3\nDuration                                 : 1h 26mn\nBit rate mode                            : Constant\nBit rate                                 : 128 Kbps\nChannel(s)                               : 2 channels\nSampling rate                            : 44.1 KHz\nCompression mode                         : Lossy\nStream size                              : 79.5 MiB (11%)\nTitle                                    : ~ rDX ~\nDefault                                  : Yes\nForced                                   : No","torrent":{"xt":"urn:btih:1f1d62bc800dbd7ae11501e1597fdf49e5f750e6","amp;dn":"Poltergeist+2015+Movies+TELESYNC+XviD+AAC+New+%2BSample+%7E+%E2%98%BBrDX%E2%98%BB","amp;tr":["udp%3A%2F%2Ftracker.openbittorrent.com%3A80","udp%3A%2F%2Fopen.demonii.com%3A1337","udp%3A%2F%2Ftracker.coppersurfer.tk%3A6969","udp%3A%2F%2Fexodus.desync.com%3A6969"],"infoHash":"1f1d62bc800dbd7ae11501e1597fdf49e5f750e6","infoHashBuffer":{"type":"Buffer","data":[31,29,98,188,128,13,189,122,225,21,1,225,89,127,223,73,229,247,80,230]},"announce":[],"urlList":[]}}